<mxfile host="app.diagrams.net" agent="Mozilla/5.0 (Windows NT 10.0; Win64; x64) AppleWebKit/537.36 (KHTML, like Gecko) Chrome/134.0.0.0 YaBrowser/25.4.0.0 Safari/537.36" version="27.0.9">
  <diagram name="Страница — 1" id="91X2aZSLvUdye_5keOuR">
    <mxGraphModel dx="683" dy="783" grid="1" gridSize="10" guides="1" tooltips="1" connect="1" arrows="1" fold="1" page="1" pageScale="1" pageWidth="827" pageHeight="1169" math="0" shadow="0">
      <root>
        <mxCell id="0" />
        <mxCell id="1" parent="0" />
        <mxCell id="vWBpz503TdF2dAPc1-_F-3" value="" style="group" vertex="1" connectable="0" parent="1">
          <mxGeometry x="164" y="260" width="250" height="160" as="geometry" />
        </mxCell>
        <mxCell id="vWBpz503TdF2dAPc1-_F-10" style="edgeStyle=none;curved=1;rounded=0;orthogonalLoop=1;jettySize=auto;html=1;fontSize=12;startSize=8;endSize=8;" edge="1" parent="vWBpz503TdF2dAPc1-_F-3" source="vWBpz503TdF2dAPc1-_F-1">
          <mxGeometry relative="1" as="geometry">
            <mxPoint x="396" y="80" as="targetPoint" />
          </mxGeometry>
        </mxCell>
        <mxCell id="vWBpz503TdF2dAPc1-_F-1" value="Автоматическая нормализация" style="rounded=0;whiteSpace=wrap;html=1;" vertex="1" parent="vWBpz503TdF2dAPc1-_F-3">
          <mxGeometry width="250" height="160" as="geometry" />
        </mxCell>
        <mxCell id="vWBpz503TdF2dAPc1-_F-2" value="A0" style="text;html=1;align=center;verticalAlign=middle;whiteSpace=wrap;rounded=0;" vertex="1" parent="vWBpz503TdF2dAPc1-_F-3">
          <mxGeometry x="211" y="130" width="39" height="30" as="geometry" />
        </mxCell>
        <mxCell id="vWBpz503TdF2dAPc1-_F-4" value="" style="endArrow=classic;html=1;rounded=0;fontSize=12;startSize=8;endSize=8;curved=1;entryX=0.003;entryY=0.178;entryDx=0;entryDy=0;entryPerimeter=0;" edge="1" parent="1">
          <mxGeometry width="50" height="50" relative="1" as="geometry">
            <mxPoint x="19.25" y="280" as="sourcePoint" />
            <mxPoint x="164" y="280.48" as="targetPoint" />
          </mxGeometry>
        </mxCell>
        <mxCell id="vWBpz503TdF2dAPc1-_F-5" value="Название отношения" style="edgeLabel;html=1;align=center;verticalAlign=middle;resizable=0;points=[];fontSize=12;" vertex="1" connectable="0" parent="vWBpz503TdF2dAPc1-_F-4">
          <mxGeometry x="0.0058" y="1" relative="1" as="geometry">
            <mxPoint x="-3" y="-10" as="offset" />
          </mxGeometry>
        </mxCell>
        <mxCell id="vWBpz503TdF2dAPc1-_F-6" value="" style="endArrow=classic;html=1;rounded=0;fontSize=12;startSize=8;endSize=8;curved=1;entryX=0.003;entryY=0.178;entryDx=0;entryDy=0;entryPerimeter=0;" edge="1" parent="1">
          <mxGeometry width="50" height="50" relative="1" as="geometry">
            <mxPoint x="19" y="339.5" as="sourcePoint" />
            <mxPoint x="164" y="339.5" as="targetPoint" />
          </mxGeometry>
        </mxCell>
        <mxCell id="vWBpz503TdF2dAPc1-_F-7" value="Список атрибутов" style="edgeLabel;html=1;align=center;verticalAlign=middle;resizable=0;points=[];fontSize=12;" vertex="1" connectable="0" parent="vWBpz503TdF2dAPc1-_F-6">
          <mxGeometry x="0.0058" y="1" relative="1" as="geometry">
            <mxPoint x="-3" y="-10" as="offset" />
          </mxGeometry>
        </mxCell>
        <mxCell id="vWBpz503TdF2dAPc1-_F-8" value="" style="endArrow=classic;html=1;rounded=0;fontSize=12;startSize=8;endSize=8;curved=1;entryX=0;entryY=0.75;entryDx=0;entryDy=0;" edge="1" parent="1">
          <mxGeometry width="50" height="50" relative="1" as="geometry">
            <mxPoint x="19" y="399" as="sourcePoint" />
            <mxPoint x="164" y="399" as="targetPoint" />
          </mxGeometry>
        </mxCell>
        <mxCell id="vWBpz503TdF2dAPc1-_F-9" value="Список функциональных&lt;div&gt;зависимостей&lt;/div&gt;" style="edgeLabel;html=1;align=center;verticalAlign=middle;resizable=0;points=[];fontSize=12;" vertex="1" connectable="0" parent="vWBpz503TdF2dAPc1-_F-8">
          <mxGeometry x="0.0058" y="1" relative="1" as="geometry">
            <mxPoint x="-2" y="-18" as="offset" />
          </mxGeometry>
        </mxCell>
        <mxCell id="vWBpz503TdF2dAPc1-_F-11" value="Нарушения&lt;div&gt;нормализации&lt;/div&gt;" style="edgeLabel;html=1;align=center;verticalAlign=middle;resizable=0;points=[];fontSize=12;" vertex="1" connectable="0" parent="1">
          <mxGeometry x="480" y="320" as="geometry" />
        </mxCell>
        <mxCell id="vWBpz503TdF2dAPc1-_F-12" value="" style="endArrow=classic;html=1;rounded=0;fontSize=12;startSize=8;endSize=8;curved=1;entryX=0.003;entryY=0.178;entryDx=0;entryDy=0;entryPerimeter=0;" edge="1" parent="1">
          <mxGeometry width="50" height="50" relative="1" as="geometry">
            <mxPoint x="414" y="280" as="sourcePoint" />
            <mxPoint x="558.75" y="280.48" as="targetPoint" />
          </mxGeometry>
        </mxCell>
        <mxCell id="vWBpz503TdF2dAPc1-_F-13" value="Текущая нормальная&lt;div&gt;&amp;nbsp;форма&lt;/div&gt;" style="edgeLabel;html=1;align=center;verticalAlign=middle;resizable=0;points=[];fontSize=12;" vertex="1" connectable="0" parent="vWBpz503TdF2dAPc1-_F-12">
          <mxGeometry x="0.0058" y="1" relative="1" as="geometry">
            <mxPoint x="-7" y="-19" as="offset" />
          </mxGeometry>
        </mxCell>
        <mxCell id="vWBpz503TdF2dAPc1-_F-14" value="" style="endArrow=classic;html=1;rounded=0;fontSize=12;startSize=8;endSize=8;curved=1;entryX=0.003;entryY=0.178;entryDx=0;entryDy=0;entryPerimeter=0;" edge="1" parent="1">
          <mxGeometry width="50" height="50" relative="1" as="geometry">
            <mxPoint x="414" y="400" as="sourcePoint" />
            <mxPoint x="558.75" y="400.48" as="targetPoint" />
          </mxGeometry>
        </mxCell>
        <mxCell id="vWBpz503TdF2dAPc1-_F-15" value="Нормализованные&lt;div&gt;отношения&lt;/div&gt;" style="edgeLabel;html=1;align=center;verticalAlign=middle;resizable=0;points=[];fontSize=12;" vertex="1" connectable="0" parent="vWBpz503TdF2dAPc1-_F-14">
          <mxGeometry x="0.0058" y="1" relative="1" as="geometry">
            <mxPoint x="-7" y="-19" as="offset" />
          </mxGeometry>
        </mxCell>
        <mxCell id="vWBpz503TdF2dAPc1-_F-16" value="" style="endArrow=classic;html=1;rounded=0;fontSize=12;startSize=8;endSize=8;curved=1;entryX=0.225;entryY=-0.002;entryDx=0;entryDy=0;entryPerimeter=0;" edge="1" parent="1" target="vWBpz503TdF2dAPc1-_F-1">
          <mxGeometry width="50" height="50" relative="1" as="geometry">
            <mxPoint x="220" y="160" as="sourcePoint" />
            <mxPoint x="220" y="258" as="targetPoint" />
          </mxGeometry>
        </mxCell>
        <mxCell id="vWBpz503TdF2dAPc1-_F-17" value="Определения&lt;div&gt;уровней&lt;/div&gt;&lt;div&gt;нормализации&lt;/div&gt;" style="edgeLabel;html=1;align=center;verticalAlign=middle;resizable=0;points=[];fontSize=12;" vertex="1" connectable="0" parent="1">
          <mxGeometry x="170" y="200" as="geometry" />
        </mxCell>
        <mxCell id="vWBpz503TdF2dAPc1-_F-22" value="" style="endArrow=classic;html=1;rounded=0;fontSize=12;startSize=8;endSize=8;curved=1;entryX=0.225;entryY=-0.002;entryDx=0;entryDy=0;entryPerimeter=0;" edge="1" parent="1">
          <mxGeometry width="50" height="50" relative="1" as="geometry">
            <mxPoint x="350" y="160" as="sourcePoint" />
            <mxPoint x="350" y="260" as="targetPoint" />
          </mxGeometry>
        </mxCell>
        <mxCell id="vWBpz503TdF2dAPc1-_F-23" value="Правила вывода&lt;div&gt;функциональных&lt;/div&gt;&lt;div&gt;зависимостей&lt;/div&gt;" style="edgeLabel;html=1;align=center;verticalAlign=middle;resizable=0;points=[];fontSize=12;" vertex="1" connectable="0" parent="1">
          <mxGeometry x="410" y="200" as="geometry" />
        </mxCell>
        <mxCell id="vWBpz503TdF2dAPc1-_F-24" value="" style="endArrow=classic;html=1;rounded=0;fontSize=12;startSize=8;endSize=8;curved=1;entryX=0.5;entryY=1;entryDx=0;entryDy=0;" edge="1" parent="1" target="vWBpz503TdF2dAPc1-_F-1">
          <mxGeometry width="50" height="50" relative="1" as="geometry">
            <mxPoint x="289" y="520" as="sourcePoint" />
            <mxPoint x="360" y="630" as="targetPoint" />
          </mxGeometry>
        </mxCell>
        <mxCell id="vWBpz503TdF2dAPc1-_F-25" value="ЭВМ" style="edgeLabel;html=1;align=center;verticalAlign=middle;resizable=0;points=[];fontSize=12;" vertex="1" connectable="0" parent="1">
          <mxGeometry x="264" y="465" as="geometry" />
        </mxCell>
      </root>
    </mxGraphModel>
  </diagram>
</mxfile>
